<svg width="102" height="97" viewBox="0 0 102 97" fill="none" xmlns="http://www.w3.org/2000/svg">
<path d="M96.68 56.3401C95.4902 55.1216 94.0774 54.1551 92.5225 53.4956C90.9676 52.8361 89.301 52.4967 87.6179 52.4967C85.9348 52.4967 84.2682 52.8361 82.7133 53.4956C81.1584 54.1551 79.7457 55.1216 78.5558 56.3401L76.8018 58.1355C76.4094 58.5371 75.7635 58.5371 75.3712 58.1355L73.6171 56.3401C71.2137 53.88 67.9539 52.498 64.555 52.498C61.1561 52.498 57.8963 53.88 55.4929 56.3401C53.0895 58.8002 51.7393 62.1367 51.7393 65.6158C51.7393 69.0948 53.0895 72.4314 55.4929 74.8914L57.9623 77.419L75.3712 95.2382C75.7635 95.6398 76.4094 95.6398 76.8018 95.2382L94.2107 77.419L96.68 74.8914C97.8704 73.6735 98.8147 72.2275 99.459 70.636C100.103 69.0444 100.435 67.3385 100.435 65.6158C100.435 63.893 100.103 62.1871 99.459 60.5956C98.8147 59.004 97.8704 57.558 96.68 56.3401Z" fill="white"/>
<path fill-rule="evenodd" clip-rule="evenodd" d="M82.4205 52.8051C84.0677 52.1065 85.8338 51.7467 87.6179 51.7467C89.402 51.7467 91.1682 52.1065 92.8154 52.8051C94.4625 53.5037 95.9579 54.5272 97.2166 55.8161C98.4757 57.1044 99.4737 58.633 100.154 60.3141C100.835 61.9954 101.185 63.7969 101.185 65.6158C101.185 67.4347 100.835 69.2361 100.154 70.9174C99.4736 72.5987 98.4756 74.1274 97.2164 75.4157L77.3382 95.7623C76.6517 96.4651 75.5213 96.4651 74.8347 95.7623L54.9564 75.4156C52.4144 72.8136 50.9893 69.2882 50.9893 65.6158C50.9893 61.9434 52.4144 58.418 54.9564 55.816C57.4991 53.2134 60.9514 51.748 64.555 51.748C68.1586 51.748 71.6109 53.2134 74.1536 55.816L75.9076 57.6114C76.0057 57.7118 76.1672 57.7118 76.2653 57.6114L78.0192 55.8161C78.0193 55.8161 78.0192 55.8161 78.0192 55.8161C79.2779 54.5272 80.7734 53.5037 82.4205 52.8051ZM87.6179 53.2467C86.0358 53.2467 84.4688 53.5657 83.0061 54.1861C81.5435 54.8064 80.2134 55.7161 79.0924 56.8641L77.3382 58.6596C76.6517 59.3624 75.5213 59.3624 74.8347 58.6596L73.0806 56.8642C70.8164 54.5467 67.7493 53.248 64.555 53.248C61.3607 53.248 58.2936 54.5467 56.0294 56.8642C53.7646 59.1823 52.4893 62.3301 52.4893 65.6158C52.4893 68.9015 53.7646 72.0492 56.0294 74.3673L75.9076 94.7141C76.0057 94.8145 76.1672 94.8145 76.2653 94.7141L96.1435 74.3673C97.2651 73.2198 98.1559 71.8563 98.7638 70.3545C99.3718 68.8527 99.6849 67.2424 99.6849 65.6158C99.6849 63.9891 99.3718 62.3788 98.7638 60.877C98.1559 59.3752 97.2653 58.0118 96.1437 56.8643C95.0226 55.7163 93.6923 54.8064 92.2297 54.1861C90.7671 53.5657 89.2 53.2467 87.6179 53.2467Z" fill="white"/>
<path fill-rule="evenodd" clip-rule="evenodd" d="M0.25 10C0.25 4.61522 4.61522 0.25 10 0.25H87C92.3848 0.25 96.75 4.61522 96.75 10V42H95.25V10C95.25 5.44365 91.5564 1.75 87 1.75H10C5.44365 1.75 1.75 5.44365 1.75 10V87C1.75 91.5564 5.44365 95.25 10 95.25H49V96.75H10C4.61522 96.75 0.25 92.3848 0.25 87V10Z" fill="white"/>
</svg>
